# xmcd
#
# Track frame offsets: 
#        182
#        16645
#        33152
#        47582
#        61595
#        81310
#        96735
#        115792
#        130397
#        144070
#
# Disc length: 2153 seconds
#
# Revision: 3
# Processed by: cddbd v1.5.2PL0 Copyright (c) Steve Scherf et al.
# Submitted via: ExactAudioCopyFreeDBPlugin 1.0
#
DISCID=7608670a
DTITLE=Kenny Rogers - Love Songs
DYEAR=1999
DGENRE=Country
TTITLE0=Love Will Turn You Around
TTITLE1=You Decorated My Life
TTITLE2=Love The World A Day
TTITLE3=Today I Started Loving You Again (With The First Edition)
TTITLE4=Through The Years
TTITLE5=Love Is What We Make It
TTITLE6=She Believes In Me
TTITLE7=But You Know I Love You
TTITLE8=Every Time Two Fools Collide (with Dottie West)
TTITLE9=Lady
EXTD=
EXTT0=
EXTT1=
EXTT2=
EXTT3=
EXTT4=
EXTT5=
EXTT6=
EXTT7=
EXTT8=
EXTT9=
PLAYORDER=
